<?xml version="1.0" encoding="UTF-8"?>
<!DOCTYPE svg PUBLIC "-//W3C//DTD SVG 1.1//EN" "http://www.w3.org/Graphics/SVG/1.1/DTD/svg11.dtd">
<!-- Creator: CorelDRAW X8 -->
<svg xmlns="http://www.w3.org/2000/svg" xml:space="preserve" width="105.977mm" height="90.9021mm" version="1.1" style="shape-rendering:geometricPrecision; text-rendering:geometricPrecision; image-rendering:optimizeQuality; fill-rule:evenodd; clip-rule:evenodd"
viewBox="0 0 4504 3863"
 xmlns:xlink="http://www.w3.org/1999/xlink">
 <defs>
  <style type="text/css">
   <![CDATA[
    .fil0 {fill:black}
   ]]>
  </style>
 </defs>
 <g id="Слой_x0020_1">
  <metadata id="CorelCorpID_0Corel-Layer"/>
  <path class="fil0" d="M428 5c-210,27 -373,181 -414,369 -18,79 -13,164 -13,251l0 2610c0,84 -5,171 12,249 40,187 200,347 411,374 66,8 425,3 521,3l2871 0c80,0 185,6 262,-3 155,-19 264,-105 329,-191 100,-133 96,-231 96,-429l0 -2610c0,-172 11,-290 -95,-430 -66,-88 -171,-173 -328,-192 -66,-9 -425,-4 -521,-4l-2871 0c-79,0 -185,-6 -260,3zm-106 486l1 1853c10,-5 11,-7 19,-15 6,-7 11,-11 18,-18l525 -526c187,-188 375,-372 561,-561 16,7 109,104 123,118 10,10 18,20 28,30 12,11 20,20 31,31l724 722c11,11 53,56 61,60 25,-15 625,-631 645,-639 74,69 201,201 280,280 94,94 186,185 280,279 28,29 547,552 563,561l1 -2175c0,-99 -69,-168 -167,-168l-3525 0c-99,0 -168,69 -168,168zm168 3049l3525 0c99,0 167,-70 167,-168l0 -238c0,-18 -46,-56 -65,-76l-1059 -1057c-17,6 -286,281 -312,307 -33,33 -70,75 -104,104 7,16 183,189 205,207 -7,16 -98,101 -111,115 -20,20 -99,104 -115,114 -12,-7 -126,-125 -147,-145l-952 -952c-14,-15 -61,-66 -76,-72 -29,25 -158,158 -197,197l-885 885c-55,54 -42,20 -42,158 0,132 0,263 0,394 0,72 -5,114 33,164 26,34 69,63 135,63z"/>
  <path class="fil0" d="M3513 647c-186,19 -311,174 -295,348 15,167 162,309 350,292 225,-21 363,-268 255,-471 -58,-109 -182,-183 -310,-169z"/>
 </g>
</svg>
